<svg width="130" height="131" viewBox="0 0 130 131" fill="none" xmlns="http://www.w3.org/2000/svg">
<path opacity="0.2" d="M19.0625 111.312C13.3125 105.545 17.125 93.4466 14.1875 86.3631C11.25 79.2796 0 73.0737 0 65.238C0 57.4023 11.125 51.4471 14.1875 44.1129C17.25 36.7786 13.3125 24.931 19.0625 19.1639C24.8125 13.3968 36.875 17.2206 43.9375 14.2744C51 11.3281 57.1875 0.0446777 65 0.0446777C72.8125 0.0446777 78.75 11.2028 86.0625 14.2744C93.375 17.346 105.188 13.3968 110.938 19.1639C116.688 24.931 112.875 37.0294 115.813 44.1129C118.75 51.1964 130 57.4023 130 65.238C130 73.0737 118.875 79.0289 115.813 86.3631C112.75 93.6974 116.688 105.545 110.938 111.312C105.188 117.079 93.125 113.255 86.0625 116.202C79 119.148 72.8125 130.431 65 130.431C57.1875 130.431 51.25 119.273 43.9375 116.202C36.625 113.13 24.8125 117.079 19.0625 111.312Z" fill="#F7CBCB"/>
</svg>
